# xmcd
#
# Track frame offsets: 
#        183
#        15910
#        34248
#        54470
#        75065
#        90698
#        117013
#        138413
#        158958
#        177945
#        198545
#        210293
#
# Disc length: 3105 seconds
#
# Revision: 4
# Processed by: cddbd v1.5.2PL0 Copyright (c) Steve Scherf et al.
# Submitted via: ExactAudioCopyFreeDBPlugin 1.0
#
DISCID=8b0c1f0c
DTITLE=譚詠麟 - 第一滴淚
DYEAR=1986
DGENRE=流行音樂
TTITLE0=世界停頓
TTITLE1=第一滴淚
TTITLE2=的士司機
TTITLE3=永不想你
TTITLE4=最佳福星 (電影「最佳福星」主題曲)
TTITLE5=和平之歌 (86和平年音樂會主題曲)
TTITLE6=舊信紙
TTITLE7=刺客
TTITLE8=珍重
TTITLE9=夢想的幻彩
TTITLE10=衝線 (86禁毒宣傳歌曲)
TTITLE11=無言感激
EXTD=YEAR: 1986
EXTT0=
EXTT1=
EXTT2=
EXTT3=
EXTT4=
EXTT5=
EXTT6=
EXTT7=
EXTT8=
EXTT9=
EXTT10=
EXTT11=
PLAYORDER=
